<svg xmlns="http://www.w3.org/2000/svg" xml:space="preserve" width="655.359" height="655.359" style="shape-rendering:geometricPrecision;text-rendering:geometricPrecision;image-rendering:optimizeQuality;fill-rule:evenodd;clip-rule:evenodd" viewBox="0 0 6.827 6.827"><defs><style>.fil0{fill:none}</style></defs><g id="Layer_x0020_1"><g id="_486845848"><path id="_486845824" class="fil0" d="M0 0h6.827v6.827H0z"/><path id="_486846016" class="fil0" d="M.853.853h5.12v5.12H.853z"/></g><path d="M4.392 1.254c.251.251.407.597.407.978h-.231c0-.317-.13-.605-.339-.814-.825-.79-1.916-.15-1.97.814h-.231a1.386 1.386 0 0 1 2.364-.977zm.407.978v.926h-.231v-.926a.116.116 0 0 1 .231 0zm-2.54 0v.926h-.231v-.926a.116.116 0 0 1 .23 0z" style="fill:#fb8c00;fill-rule:nonzero"/><g id="_486845488"><path id="_486845584" d="M3.413 3.13H1.335a.08.08 0 0 0-.083.083V5.89a.08.08 0 0 0 .083.083h2.078V3.13z" style="fill:#fb8c00"/><path id="_486846280" d="M5.492 3.13H3.413v.666h.002l-.001 1.511v.666h2.078a.085.085 0 0 0 .083-.083V3.213a.085.085 0 0 0-.083-.084z" style="fill:#f57c00"/><path id="_486844888" d="M3.735 3.929a.454.454 0 0 0-.777.322.454.454 0 0 0 .342.44v.502a.114.114 0 0 0 .227 0v-.502a.455.455 0 0 0 .208-.762z" style="fill:#e65100"/></g></g></svg>